<?xml version="1.0" standalone="no"?>
<!DOCTYPE svg PUBLIC "-//W3C//DTD SVG 20010904//EN"
 "http://www.w3.org/TR/2001/REC-SVG-20010904/DTD/svg10.dtd">
<svg version="1.0" xmlns="http://www.w3.org/2000/svg"
 width="920.000000pt" height="295.000000pt" viewBox="0 0 920.000000 295.000000"
 preserveAspectRatio="xMidYMid meet">

<g transform="translate(0.000000,295.000000) scale(0.100000,-0.100000)"
fill="#000000" stroke="none">
<path d="M179 2571 l-39 -39 0 -1021 c0 -1122 -3 -1063 60 -1096 25 -13 106
-15 575 -15 l545 0 0 425 0 425 -145 0 -145 0 0 170 0 170 144 0 144 0 5 183
c2 100 7 195 11 211 21 88 107 201 182 239 79 39 130 48 301 49 93 1 175 -2
181 -6 14 -8 17 -292 4 -300 -5 -3 -62 -6 -128 -7 -192 -2 -207 -19 -212 -231
l-4 -138 166 0 166 0 0 -29 c0 -15 -5 -53 -10 -82 -6 -30 -13 -90 -16 -134 -3
-44 -11 -83 -18 -87 -6 -4 -73 -8 -148 -8 l-138 0 0 -425 0 -425 295 0 c324 0
333 2 374 59 21 29 21 32 21 1043 0 987 -1 1014 -20 1045 -40 67 27 63 -1096
63 l-1016 0 -39 -39z"/>
<path d="M3010 2186 c-3 -2 -23 -5 -45 -7 -22 -1 -58 -11 -80 -22 -96 -46
-118 -92 -125 -257 l-5 -125 -55 -3 c-86 -4 -82 1 -78 -110 l3 -97 65 -5 65
-5 2 -315 2 -315 125 -3 126 -3 2 318 3 318 86 3 86 3 7 67 c3 37 9 84 12 104
l6 37 -98 3 -99 3 -3 74 c-2 53 1 79 13 97 8 13 19 23 23 23 4 -1 42 -1 85 0
l78 1 -3 108 -3 107 -95 3 c-53 1 -98 1 -100 -2z"/>
<path d="M5735 2148 c-22 -5 -67 -12 -100 -16 l-60 -7 -3 -587 -2 -587 52 -10
c172 -36 381 -37 489 -2 85 27 127 55 166 114 40 60 46 114 41 374 -3 181 -6
202 -26 240 -25 47 -75 85 -138 103 -42 13 -241 9 -296 -5 l-28 -7 0 201 0
201 -27 -1 c-16 -1 -46 -5 -68 -11z m284 -593 c16 -8 31 -22 35 -30 3 -9 6
-88 6 -174 0 -144 -2 -161 -20 -184 -25 -32 -75 -47 -152 -47 l-58 0 0 209 0
209 38 15 c47 20 115 21 151 2z"/>
<path d="M8235 2144 c-33 -7 -76 -13 -96 -14 -20 0 -41 -6 -47 -12 -6 -9 -9
-220 -8 -603 l1 -590 128 -3 127 -3 0 196 c0 121 4 195 10 195 5 0 21 -21 35
-47 14 -27 65 -113 113 -193 l88 -145 137 -3 c75 -1 137 0 137 4 0 4 -14 30
-32 58 -17 28 -41 69 -54 91 -12 22 -40 69 -63 105 -52 84 -101 171 -101 181
0 5 10 24 23 43 12 19 58 92 102 161 44 70 90 143 103 162 12 19 20 39 17 44
-4 5 -62 9 -131 9 -105 0 -126 -3 -140 -17 -8 -10 -58 -85 -109 -168 -51 -82
-103 -161 -114 -175 l-20 -25 -1 383 0 382 -22 -1 c-13 -1 -50 -7 -83 -15z"/>
<path d="M4205 1753 c-88 -34 -144 -88 -175 -169 -32 -81 -41 -317 -16 -414
32 -123 94 -192 209 -234 77 -27 231 -31 337 -9 l85 18 3 107 3 107 -33 -10
c-60 -17 -202 -30 -252 -23 -36 4 -58 15 -79 35 l-28 29 3 165 c4 210 3 209
146 213 56 2 128 -3 170 -11 l72 -14 0 103 0 103 -37 11 c-21 7 -105 14 -188
16 -144 4 -153 3 -220 -23z"/>
<path d="M4949 1765 c-75 -24 -139 -73 -173 -135 l-31 -55 -3 -199 c-3 -183
-2 -203 18 -255 34 -91 102 -153 200 -185 102 -33 324 -31 453 5 l37 10 0 99
c0 77 -3 100 -13 100 -8 0 -58 -7 -113 -15 -118 -18 -190 -19 -249 -4 -56 14
-76 37 -82 94 l-6 45 243 0 242 0 -4 148 c-3 136 -5 151 -30 197 -33 64 -80
108 -143 137 -42 19 -70 23 -175 25 -89 2 -138 -2 -171 -12z m221 -190 c30
-16 54 -68 48 -107 -3 -22 -6 -23 -113 -23 l-110 0 -3 35 c-5 68 37 110 111
110 21 0 51 -7 67 -15z"/>
<path d="M6622 1761 c-105 -39 -151 -81 -191 -174 -19 -44 -21 -69 -21 -241
l0 -193 31 -62 c60 -119 169 -175 344 -175 166 0 276 52 342 161 l28 48 0 220
c0 219 0 220 -27 270 -34 65 -69 98 -143 132 -54 25 -72 28 -185 30 -104 3
-134 0 -178 -16z m239 -214 l34 -23 3 -171 2 -171 -31 -26 c-58 -49 -170 -31
-198 31 -14 32 -14 288 0 316 34 68 124 89 190 44z"/>
<path d="M7462 1761 c-105 -39 -151 -81 -191 -174 -19 -43 -21 -69 -21 -232 0
-164 2 -190 22 -242 48 -130 172 -198 355 -196 158 1 269 49 328 142 38 61 47
130 43 321 -3 157 -5 180 -26 225 -31 68 -73 108 -146 141 -55 26 -74 29 -186
31 -104 3 -134 0 -178 -16z m229 -207 c47 -24 59 -66 59 -204 0 -133 -12 -177
-54 -205 -31 -21 -104 -22 -143 -1 -47 24 -55 56 -51 219 3 128 5 148 23 167
11 12 29 26 40 31 33 13 94 10 126 -7z"/>
<path d="M3295 1718 c-4 -29 -9 -77 -10 -105 l-2 -53 136 0 c204 0 231 -14
231 -115 l0 -45 -122 0 c-190 -1 -258 -24 -309 -106 -26 -43 -29 -196 -3 -249
59 -126 206 -164 387 -102 42 15 80 27 82 27 3 0 5 -11 5 -25 l0 -25 110 0
110 0 0 298 c-1 318 -9 394 -49 450 -55 78 -144 102 -382 102 l-177 0 -7 -52z
m355 -538 c0 -46 -3 -52 -27 -62 -16 -6 -51 -13 -79 -15 -64 -6 -97 19 -92 70
4 43 35 57 126 57 l72 0 0 -50z"/>
</g>
</svg>
