<?xml version="1.0" standalone="no"?>
<!DOCTYPE svg PUBLIC "-//W3C//DTD SVG 20010904//EN"
 "http://www.w3.org/TR/2001/REC-SVG-20010904/DTD/svg10.dtd">
<svg version="1.0" xmlns="http://www.w3.org/2000/svg"
 width="1200.000000pt" height="800.000000pt" viewBox="0 0 1200.000000 800.000000"
 preserveAspectRatio="xMidYMid meet">

<g transform="translate(0.000000,800.000000) scale(0.100000,-0.100000)"
fill="#000000" stroke="none">
<path d="M2080 5458 c-30 -4 -75 -12 -100 -18 -25 -6 -58 -13 -75 -16 -89 -17
-271 -93 -252 -107 8 -6 7 -7 -5 -3 -24 7 -50 -3 -41 -17 3 -5 1 -7 -4 -4 -6
4 -22 -2 -36 -13 -14 -11 -29 -20 -34 -20 -4 0 -19 -9 -33 -19 l-24 -19 27
-13 c27 -12 37 -29 17 -29 -5 0 -10 3 -10 8 0 4 -11 12 -24 18 -19 9 -26 8
-37 -7 -7 -10 -16 -16 -20 -13 -4 2 -18 -9 -32 -25 -14 -17 -28 -27 -32 -23
-4 4 -5 1 -3 -7 2 -8 -10 -21 -25 -29 -16 -7 -31 -21 -34 -30 -4 -10 -24 -32
-45 -50 -21 -19 -38 -38 -38 -43 0 -6 -11 -22 -25 -37 -14 -15 -23 -33 -20
-39 2 -7 1 -12 -3 -10 -4 1 -8 -2 -9 -7 -1 -5 -5 -12 -10 -15 -12 -8 -58 -75
-57 -81 1 -3 -1 -11 -4 -18 -2 -7 -2 -16 2 -19 3 -4 6 2 7 13 0 16 2 16 10 -4
5 -15 5 -30 -1 -42 -6 -10 -10 -29 -9 -42 1 -23 1 -23 9 2 7 21 8 21 9 5 0
-11 -3 -27 -8 -34 -10 -15 -10 -15 -24 54 -4 19 -5 19 -6 -1 -1 -18 -31 -58
-31 -41 0 15 31 62 42 62 20 0 19 21 -1 22 -15 1 -26 -14 -50 -70 -35 -85 -54
-157 -49 -183 2 -11 -2 -23 -9 -29 -18 -14 -33 -131 -33 -265 0 -122 18 -270
32 -270 5 0 7 -4 3 -10 -11 -17 60 -221 99 -282 11 -18 20 -37 21 -43 0 -5 7
-9 13 -7 7 1 12 -3 10 -10 -3 -20 32 -79 43 -72 6 4 4 13 -7 25 -9 10 -12 19
-6 19 6 0 13 -6 15 -12 4 -10 8 -9 17 2 9 13 10 12 8 -5 -2 -11 -9 -25 -17
-31 -12 -9 -10 -17 14 -48 15 -20 30 -34 33 -31 3 3 14 -3 25 -12 19 -17 19
-17 12 7 -4 14 -4 22 0 18 4 -4 9 -21 11 -39 l4 -32 -21 27 c-12 15 -24 25
-27 21 -9 -9 50 -65 61 -58 6 3 7 1 3 -5 -8 -14 64 -84 80 -78 8 3 11 0 8 -8
-3 -8 22 -33 63 -63 135 -98 138 -100 188 -102 14 -1 16 -4 8 -9 -26 -17 216
-111 341 -132 34 -6 69 -14 80 -17 14 -4 16 -2 11 8 -6 11 -5 12 6 2 28 -27
384 -11 474 20 6 2 27 7 48 12 20 4 37 11 37 17 0 5 5 6 11 2 13 -7 139 44
139 57 0 5 7 9 16 9 8 0 25 5 36 11 20 11 20 12 4 24 -15 12 -15 13 8 11 13 0
22 -5 19 -9 -6 -9 33 9 51 24 53 43 60 50 43 45 -12 -4 -16 -2 -11 5 4 8 -1 9
-17 4 -28 -9 -24 -3 10 15 13 6 21 8 17 2 -3 -5 1 -13 10 -16 19 -7 82 44 76
62 -2 7 2 10 11 6 8 -3 18 -1 22 5 3 6 1 11 -5 11 -20 0 -6 45 15 48 20 4 20
4 0 -11 -11 -9 -17 -19 -12 -23 4 -4 24 9 45 29 31 31 38 43 34 67 -4 26 -1
30 19 30 21 -1 22 -2 7 -11 -10 -5 -18 -15 -18 -21 0 -18 30 13 64 67 38 61
87 152 86 160 -1 3 8 30 19 61 22 57 28 90 12 65 -5 -7 -11 -9 -14 -5 -3 5 1
15 9 22 8 7 14 9 15 5 3 -24 30 107 40 191 11 96 7 314 -7 349 -6 16 -54 17
-583 15 -465 -2 -521 -4 -291 -8 l285 -5 -282 -3 -283 -2 0 -155 0 -155 404 0
c314 0 405 3 409 13 3 7 6 5 6 -5 1 -10 6 -18 12 -18 8 0 8 -5 -1 -15 -9 -10
-9 -15 -1 -15 6 0 10 -14 10 -32 l-2 -33 -5 30 c-4 27 -6 24 -18 -25 -7 -30
-11 -64 -8 -75 4 -16 3 -17 -5 -5 -8 11 -11 12 -11 2 0 -45 -85 -209 -125
-242 -8 -7 -12 -16 -9 -21 3 -5 2 -8 -3 -7 -5 2 -29 -16 -53 -40 -25 -24 -66
-57 -92 -74 -35 -23 -45 -35 -38 -43 8 -9 3 -12 -16 -9 -35 3 -76 -16 -70 -33
3 -7 1 -13 -3 -13 -5 0 -11 5 -13 12 -3 8 -9 8 -19 2 -8 -5 -30 -14 -49 -21
l-35 -12 35 6 c19 3 32 2 28 -2 -5 -5 -29 -9 -55 -10 -27 -1 -95 -8 -153 -15
-177 -21 -353 1 -485 61 -35 16 -70 27 -77 26 -7 -2 -9 -2 -5 1 4 2 0 10 -10
18 -24 18 -39 18 -24 0 15 -18 -14 -30 -37 -16 -14 9 -12 10 8 4 23 -6 24 -6
10 11 -8 10 -13 21 -11 24 3 3 -4 8 -15 10 -10 2 -37 22 -59 46 -22 23 -47 46
-55 51 -8 5 -32 30 -53 57 -22 26 -43 44 -49 40 -7 -4 -9 0 -5 10 7 17 -15 41
-28 29 -5 -4 -5 1 -2 10 3 10 1 20 -5 24 -7 5 -8 2 -3 -6 5 -9 4 -11 -4 -6 -6
4 -9 12 -6 17 8 13 -40 91 -50 82 -4 -5 -5 0 -2 9 3 10 0 29 -8 44 -12 23 -14
24 -19 7 -3 -10 -4 -4 -2 12 3 17 -4 55 -15 85 -37 108 -49 275 -29 415 10 71
55 220 72 242 5 7 7 17 3 23 -3 5 -1 10 5 10 6 0 8 5 5 10 -3 6 -1 10 4 10 6
0 11 6 11 14 0 7 6 19 14 25 9 8 13 28 11 61 -2 28 2 53 7 57 7 3 8 1 4 -5 -4
-6 -2 -21 5 -33 7 -13 7 -19 1 -15 -6 4 -10 -2 -9 -14 1 -11 4 -16 7 -12 33
38 49 66 43 75 -3 5 -1 7 4 4 6 -4 23 9 38 28 14 20 37 46 50 59 16 16 20 27
14 37 -5 8 -9 19 -9 24 0 6 4 4 9 -4 5 -8 14 -10 21 -6 9 5 11 4 6 -3 -12 -20
2 -14 54 24 28 20 47 41 43 46 -3 7 -1 8 5 4 20 -12 35 4 20 21 -11 14 -11 15
7 4 17 -10 29 -8 78 14 31 15 55 30 52 35 -3 4 5 6 17 3 17 -3 19 -2 9 5 -11
8 -11 10 0 15 8 3 3 6 -10 6 -13 1 -22 4 -18 7 3 3 20 3 38 -1 24 -6 28 -9 18
-17 -10 -7 -7 -8 11 -3 133 33 338 45 428 25 23 -6 55 -12 70 -14 54 -7 232
-89 289 -132 48 -36 53 -29 8 10 -22 19 -44 32 -50 29 -5 -3 -5 0 2 7 9 10 20
5 52 -25 22 -21 39 -41 38 -45 -1 -4 11 -20 28 -34 l30 -26 102 103 c81 81
102 108 98 125 -2 13 0 20 6 17 5 -4 7 -11 4 -16 -4 -5 -2 -9 4 -9 25 0 18 21
-16 47 -21 15 -42 34 -46 40 -4 7 -13 13 -19 13 -6 0 -3 -11 6 -25 9 -14 12
-25 7 -25 -5 0 -16 -3 -25 -6 -9 -3 -16 -1 -16 6 0 6 5 8 10 5 7 -4 9 6 8 26
-2 28 -12 38 -68 74 -121 78 -308 160 -342 149 -10 -3 -18 -1 -18 4 0 10 -74
27 -185 42 -84 11 -193 10 -285 -2z m193 -5 c-7 -2 -21 -2 -30 0 -10 3 -4 5
12 5 17 0 24 -2 18 -5z m-180 -10 c-7 -2 -19 -2 -25 0 -7 3 -2 5 12 5 14 0 19
-2 13 -5z m110 0 c-7 -2 -19 -2 -25 0 -7 3 -2 5 12 5 14 0 19 -2 13 -5z m292
-43 c3 -5 1 -10 -4 -10 -6 0 -11 5 -11 10 0 6 2 10 4 10 3 0 8 -4 11 -10z
m-622 -7 c-7 -2 -21 -2 -30 0 -10 3 -4 5 12 5 17 0 24 -2 18 -5z m698 -2 c-10
-6 -6 -11 15 -18 27 -9 26 -10 -16 -10 -32 0 -39 2 -25 8 18 7 18 8 -5 9 l-25
2 25 8 c34 11 48 11 31 1z m-652 -8 c-3 -20 2 -23 17 -9 21 21 40 21 23 -1
-13 -15 -11 -16 14 -9 18 4 27 2 27 -5 0 -9 -16 -10 -57 -4 -32 4 -68 7 -80 7
-32 0 -29 6 10 17 42 12 47 12 46 4z m745 -2 c19 -7 19 -8 -2 -13 -12 -4 -20
-2 -17 2 3 5 -9 11 -27 13 -33 4 -33 4 -3 5 17 0 39 -3 49 -7z m86 -42 c0 -14
-17 -10 -23 5 -4 10 -1 13 9 9 7 -3 14 -9 14 -14z m-1019 -3 c-9 -11 -9 -15 1
-19 7 -2 11 -6 8 -9 -3 -2 -21 1 -40 8 -27 10 -30 13 -12 13 12 1 22 6 22 11
0 6 7 10 16 10 13 0 14 -3 5 -14z m26 -18 c-3 -8 -6 -5 -6 6 -1 11 2 17 5 13
3 -3 4 -12 1 -19z m1072 -13 l24 -12 -24 -6 c-14 -4 -38 -2 -54 3 -29 9 -29 9
7 6 21 -2 35 0 32 5 -3 5 -8 7 -12 5 -4 -2 -16 3 -27 11 -19 15 -19 15 5 8 14
-4 36 -13 49 -20z m-1110 -21 c14 -12 -19 -1 -35 12 -18 14 -18 14 6 3 14 -6
27 -13 29 -15z m-149 -29 c0 -8 -7 -15 -16 -15 -14 0 -14 3 -4 15 7 8 14 15
16 15 2 0 4 -7 4 -15z m1383 -35 c7 -8 -3 -4 -21 9 -18 13 -36 20 -40 17 -3
-4 -1 -11 7 -15 10 -7 10 -9 -1 -14 -10 -3 -14 3 -14 24 l0 28 29 -17 c16 -9
34 -24 40 -32z m-16 -16 c-3 -3 -12 -4 -19 -1 -8 3 -5 6 6 6 11 1 17 -2 13 -5z
m-737 -8 c0 -2 -11 -6 -25 -8 -13 -3 -22 -1 -19 3 5 9 44 13 44 5z m37 -12
c-3 -3 -12 -4 -19 -1 -8 3 -5 6 6 6 11 1 17 -2 13 -5z m-62 -24 c-16 -7 -10
-9 25 -10 25 -1 37 -4 26 -7 -10 -3 -39 -2 -65 3 -40 6 -43 8 -21 15 35 10 60
10 35 -1z m-745 -15 c7 -8 11 -15 9 -16 -31 -7 -47 -4 -39 6 5 7 7 15 3 18 -3
4 -2 7 4 7 6 0 16 -7 23 -15z m878 -2 c-10 -2 -26 -2 -35 0 -10 3 -2 5 17 5
19 0 27 -2 18 -5z m719 -9 c-3 -3 -12 -4 -19 -1 -8 3 -5 6 6 6 11 1 17 -2 13
-5z m-1017 -14 c-8 -5 -22 -9 -30 -9 -10 0 -8 3 5 9 27 12 43 12 25 0z m634
-13 c20 -1 30 -8 32 -20 2 -12 -1 -15 -9 -9 -7 5 -28 9 -47 10 -28 2 -32 0
-20 -9 13 -9 12 -10 -3 -5 -11 3 -30 9 -43 12 -13 3 -24 10 -24 14 0 5 -8 11
-17 13 -10 3 9 3 42 1 33 -3 73 -6 89 -7z m383 7 c-3 -3 -12 -4 -19 -1 -8 3
-5 6 6 6 11 1 17 -2 13 -5z m-1157 -14 c8 -5 11 -10 5 -10 -5 0 -17 5 -25 10
-8 5 -10 10 -5 10 6 0 17 -5 25 -10z m-530 -14 c0 -2 -8 -10 -17 -17 -16 -13
-17 -12 -4 4 13 16 21 21 21 13z m526 -3 c16 -6 16 -7 -1 -13 -10 -4 -30 -4
-44 -1 l-26 5 25 7 c14 4 26 7 27 8 1 1 9 -2 19 -6z m1144 -3 c0 -5 -4 -10
-10 -10 -5 0 -10 5 -10 10 0 6 5 10 10 10 6 0 10 -4 10 -10z m-69 -17 c13 -16
12 -17 -3 -4 -17 13 -22 21 -14 21 2 0 10 -8 17 -17z m44 -33 c-10 -11 -21
-17 -24 -13 -3 4 -10 12 -16 16 -6 5 -4 7 6 4 9 -3 22 -1 30 4 22 14 24 11 4
-11z m-300 0 c3 -6 -1 -7 -9 -4 -18 7 -21 14 -7 14 6 0 13 -4 16 -10z m-972
-13 c-26 -11 -32 -32 -7 -23 14 5 15 4 4 -9 -18 -22 -26 -18 -26 13 0 22 4 27
25 28 26 2 26 2 4 -9z m1202 3 c-3 -5 -10 -10 -16 -10 -5 0 -9 5 -9 10 0 6 7
10 16 10 8 0 12 -4 9 -10z m-115 -32 c0 -5 -7 -3 -15 6 -8 8 -15 18 -15 22 0
3 7 1 15 -6 8 -7 15 -17 15 -22z m137 8 c-9 -7 -17 -19 -18 -27 0 -11 -2 -11
-6 -1 -6 14 27 56 36 46 3 -3 -2 -11 -12 -18z m-1677 0 c0 -2 -8 -10 -17 -17
-16 -13 -17 -12 -4 4 13 16 21 21 21 13z m1610 -47 c0 -6 7 -8 16 -5 14 5 15
4 4 -8 -10 -13 -14 -13 -26 -1 -16 16 -18 25 -4 25 6 0 10 -5 10 -11z m-25
-19 c10 -11 15 -20 11 -20 -4 0 -16 9 -28 20 -12 11 -17 20 -11 20 5 0 18 -9
28 -20z m-1625 -40 c13 -8 13 -11 1 -22 -11 -10 -14 -10 -18 0 -3 6 -9 10 -14
7 -5 -4 -6 1 -3 9 7 18 13 19 34 6z m317 -61 c-16 -21 -16 -21 -14 -1 0 11 5
18 9 16 11 -7 10 10 -2 24 -5 7 -3 6 6 -2 15 -13 15 -16 1 -37z m-350 9 c-3
-8 -6 -5 -6 6 -1 11 2 17 5 13 3 -3 4 -12 1 -19z m303 -63 c0 -8 -4 -15 -10
-15 -5 0 -7 7 -4 15 4 8 8 15 10 15 2 0 4 -7 4 -15z m-75 -97 c-10 -13 -14
-16 -11 -8 3 8 9 24 13 35 4 11 8 14 11 7 2 -6 -4 -22 -13 -34z m-42 -39 c-6
-6 -7 3 -4 23 4 28 6 29 9 9 2 -13 0 -27 -5 -32z m-349 -125 c-1 -36 -5 -68
-9 -72 -5 -4 -5 8 -2 26 4 17 3 32 -2 32 -7 0 -5 36 4 68 9 26 11 10 9 -54z
m336 40 c0 -8 -19 -13 -24 -6 -3 5 1 9 9 9 8 0 15 -2 15 -3z m-30 -105 c0 -11
-4 -17 -10 -14 -5 3 -10 15 -10 26 0 11 5 17 10 14 6 -3 10 -15 10 -26z m-333
-21 c-3 -8 -6 -5 -6 6 -1 11 2 17 5 13 3 -3 4 -12 1 -19z m323 -18 c0 -5 -4
-10 -10 -10 -5 0 -10 5 -10 10 0 6 5 10 10 10 6 0 10 -4 10 -10z m-20 -80
c-17 -32 -21 -19 -7 26 9 30 13 34 15 17 2 -12 -2 -32 -8 -43z m1643 -37 c-13
-2 -33 -2 -45 0 -13 2 -3 4 22 4 25 0 35 -2 23 -4z m437 -3 c0 -5 -4 -10 -10
-10 -5 0 -10 5 -10 10 0 6 5 10 10 10 6 0 10 -4 10 -10z m-2088 -270 c-11 -40
-12 -41 -9 -10 2 19 8 44 12 54 5 11 5 17 -1 14 -5 -4 -8 32 -7 85 3 127 6
129 12 7 4 -70 2 -120 -7 -150z m2105 -7 c-3 -10 -5 -2 -5 17 0 19 2 27 5 18
2 -10 2 -26 0 -35z m-2076 -80 c-9 -17 -10 -17 -9 2 0 11 -3 36 -6 55 l-7 35
16 -37 c12 -27 14 -42 6 -55z m-311 42 c0 -16 -6 -25 -15 -25 -8 0 -15 5 -15
11 0 5 5 7 10 4 6 -3 10 3 10 14 0 12 2 21 5 21 3 0 5 -11 5 -25z m30 -7 c0
-5 -4 -8 -10 -8 -5 0 -10 10 -10 23 0 18 2 19 10 7 5 -8 10 -18 10 -22z m2080
-12 c0 -26 -6 -18 -14 19 -5 22 -4 26 4 15 5 -8 10 -24 10 -34z m-1823 -28
c-3 -8 -6 -5 -6 6 -1 11 2 17 5 13 3 -3 4 -12 1 -19z m1817 -13 c-4 -8 -8 -15
-10 -15 -2 0 -4 7 -4 15 0 8 4 15 10 15 5 0 7 -7 4 -15z m271 -15 c-3 -5 -11
-10 -16 -10 -6 0 -7 5 -4 10 3 6 11 10 16 10 6 0 7 -4 4 -10z m-2345 -70 c5 8
12 11 16 8 3 -4 0 -14 -9 -22 -13 -14 -16 -14 -21 0 -3 9 -5 25 -5 37 2 15 3
13 6 -7 3 -22 7 -26 13 -16z m2037 18 c-3 -8 -6 -5 -6 6 -1 11 2 17 5 13 3 -3
4 -12 1 -19z m-1699 -119 c-3 -20 -5 -19 -9 9 -3 20 -2 29 4 23 5 -5 7 -19 5
-32z m32 12 c0 -11 5 -23 10 -26 6 -3 9 -14 9 -23 -1 -15 -2 -15 -6 1 -2 9 -8
17 -13 17 -4 0 -10 11 -12 25 -3 14 -1 25 3 25 5 0 9 -9 9 -19z m-310 -10 c0
-6 -4 -13 -10 -16 -5 -3 -10 1 -10 9 0 9 5 16 10 16 6 0 10 -4 10 -9z m17 -23
c-3 -8 -6 -5 -6 6 -1 11 2 17 5 13 3 -3 4 -12 1 -19z m1915 -23 c0 -20 -3 -39
-6 -42 -3 -4 -6 15 -6 42 0 27 3 46 6 42 3 -3 6 -22 6 -42z m271 15 c-3 -12
-8 -19 -11 -16 -5 6 5 36 12 36 2 0 2 -9 -1 -20z m19 -22 c-8 -8 -9 -4 -5 13
4 13 8 18 11 10 2 -7 -1 -18 -6 -23z m-2233 -23 c0 -5 -4 -3 -9 5 -5 8 -9 22
-9 30 0 16 17 -16 18 -35z m21 10 c0 -5 -5 -3 -10 5 -5 8 -10 20 -10 25 0 6 5
3 10 -5 5 -8 10 -19 10 -25z m1902 -52 c7 -9 7 -13 0 -13 -6 0 -13 6 -15 13
-4 9 -8 8 -17 -3 -10 -12 -11 -12 -5 5 4 11 10 31 14 45 6 24 6 24 9 -5 2 -16
8 -36 14 -42z m-1552 26 c0 -6 -4 -7 -10 -4 -5 3 -10 11 -10 16 0 6 5 7 10 4
6 -3 10 -11 10 -16z m1841 -16 c-8 -15 -10 -15 -11 -2 0 17 10 32 18 25 2 -3
-1 -13 -7 -23z m-1817 -19 c20 -19 20 -31 1 -31 -8 0 -15 9 -15 19 0 12 -4 16
-12 12 -7 -4 -8 -3 -4 4 9 15 12 15 30 -4z m47 -25 c15 -22 18 -33 10 -40 -6
-5 -9 -6 -6 -3 3 4 -5 22 -16 41 -26 42 -18 43 12 2z m1420 8 c-10 -9 -11 -8
-5 6 3 10 9 15 12 12 3 -3 0 -11 -7 -18z m-1791 -7 c0 -5 -5 -10 -11 -10 -5 0
-7 5 -4 10 3 6 8 10 11 10 2 0 4 -4 4 -10z m1765 -20 c-4 -6 -1 -17 5 -25 10
-12 9 -15 -2 -15 -10 0 -14 8 -13 23 3 26 3 27 11 27 3 0 2 -5 -1 -10z m31
-10 c0 -12 -4 -16 -9 -11 -5 5 -6 14 -3 20 10 15 12 14 12 -9z m-1456 -10
c-12 -22 -21 -26 -17 -7 2 10 17 26 25 27 1 0 -2 -9 -8 -20z m1723 -30 c3 -11
1 -20 -3 -20 -5 0 -7 -13 -5 -30 4 -33 -4 -43 -24 -31 -10 7 -10 9 2 14 10 4
14 18 13 46 -2 43 8 55 17 21z m30 -4 c3 -8 0 -19 -6 -24 -9 -8 -12 -4 -12 14
0 27 10 32 18 10z m-1622 -33 c13 -17 13 -17 -6 -3 -11 8 -22 16 -24 17 -2 2
0 3 6 3 6 0 17 -8 24 -17z m1247 -7 c-2 -15 -11 -20 -40 -21 -34 0 -36 1 -20
16 15 15 19 15 35 1 18 -16 24 -3 7 14 -7 7 -6 11 5 11 10 0 15 -8 13 -21z
m-1162 -68 c-10 -6 -22 -6 -26 -2 -5 5 3 10 18 11 22 1 24 0 8 -9z m1034 -8
c0 -5 -5 -10 -11 -10 -5 0 -7 5 -4 10 3 6 8 10 11 10 2 0 4 -4 4 -10z m400
-30 c4 -3 2 -11 -6 -18 -8 -7 -14 -8 -14 -3 0 6 -8 8 -17 5 -17 -5 -17 -5 0 9
9 8 18 23 18 33 1 18 2 17 6 -1 3 -11 9 -22 13 -25z m-370 15 c-7 -8 -17 -15
-23 -15 -6 0 -2 7 9 15 25 19 30 19 14 0z m-1430 -32 c0 -3 -7 -3 -15 1 -8 3
-15 1 -15 -4 0 -9 14 -14 33 -11 10 1 9 -17 -2 -23 -12 -8 -44 30 -37 43 6 10
36 5 36 -6z m1739 4 c-2 -1 -13 -9 -24 -17 -19 -14 -19 -14 -6 3 7 9 18 17 24
17 6 0 8 -1 6 -3z m-1219 -17 c0 -5 -7 -10 -16 -10 -8 0 -12 5 -9 10 3 6 10
10 16 10 5 0 9 -4 9 -10z m54 -25 c25 -19 16 -19 -20 0 -16 8 -22 15 -14 15 8
-1 24 -7 34 -15z m699 4 c7 0 1 -5 -12 -10 -13 -5 -26 -7 -29 -4 -3 3 1 5 9 5
12 0 11 2 -1 11 -12 9 -12 10 3 5 10 -3 24 -6 30 -7z m-630 -26 c-7 -2 -19 -2
-25 0 -7 3 -2 5 12 5 14 0 19 -2 13 -5z m985 -17 c-7 -8 -15 -12 -17 -11 -5 6
10 25 20 25 5 0 4 -6 -3 -14z m-1542 -34 c-6 -5 -36 23 -36 34 0 4 9 -1 20
-11 11 -10 18 -20 16 -23z m1590 12 c22 9 16 -7 -11 -27 -14 -10 -25 -13 -25
-7 0 5 5 10 10 10 6 0 9 10 7 23 -2 12 -2 16 0 9 3 -8 11 -11 19 -8z m-791 -4
c-44 -3 -71 -7 -61 -8 11 -1 17 -5 13 -8 -3 -3 -15 -3 -28 1 -40 13 2 25 81
23 l75 -2 -80 -6z m-18 -36 c-3 -3 -12 -4 -19 -1 -8 3 -5 6 6 6 11 1 17 -2 13
-5z m-644 -29 c38 -36 34 -41 -8 -9 -19 14 -35 28 -35 30 0 11 18 1 43 -21z
m22 15 c3 -6 -1 -7 -9 -4 -18 7 -21 14 -7 14 6 0 13 -4 16 -10z m-49 -38 c-8
-7 -46 19 -41 28 3 5 14 2 25 -7 11 -9 18 -19 16 -21z m1372 9 c10 -6 9 -11
-4 -22 -14 -11 -16 -11 -10 0 5 8 3 17 -5 22 -8 5 -9 9 -4 9 6 0 16 -4 23 -9z
m-1322 -38 c-6 -6 -36 9 -36 18 0 5 9 4 20 -3 10 -7 18 -14 16 -15z m127 -10
c-7 -2 -19 -2 -25 0 -7 3 -2 5 12 5 14 0 19 -2 13 -5z m1086 3 c-2 -2 -24 -6
-48 -9 -29 -4 -40 -2 -30 4 13 8 88 14 78 5z m-1079 -26 c0 -9 -48 -1 -55 9
-2 4 9 5 26 3 16 -2 29 -8 29 -12z m1070 6 c0 -2 -11 -6 -25 -8 -13 -3 -22 -1
-19 3 5 9 44 13 44 5z m35 -6 c-3 -5 -11 -10 -16 -10 -6 0 -7 5 -4 10 3 6 11
10 16 10 6 0 7 -4 4 -10z m-1105 -30 c0 -5 -2 -10 -4 -10 -3 0 -8 5 -11 10 -3
6 -1 10 4 10 6 0 11 -4 11 -10z m1030 -5 c-7 -8 -20 -15 -28 -15 -13 0 -12 3
4 15 25 19 40 19 24 0z m-841 -41 l-24 -13 25 -1 c14 -1 20 -4 13 -6 -6 -3
-26 -1 -45 5 -21 6 -26 10 -13 10 17 1 18 3 5 12 -11 8 -8 9 13 4 19 -4 26 -2
22 4 -4 7 0 8 11 4 14 -5 13 -8 -7 -19z m698 20 c-3 -3 -12 -4 -19 -1 -8 3 -5
6 6 6 11 1 17 -2 13 -5z m33 -4 c0 -5 -5 -10 -11 -10 -5 0 -7 5 -4 10 3 6 8
10 11 10 2 0 4 -4 4 -10z m-70 -10 c0 -5 -14 -7 -32 -3 -46 8 -48 13 -5 13 21
0 37 -4 37 -10z m-605 -10 c-3 -5 -11 -10 -16 -10 -6 0 -7 5 -4 10 3 6 11 10
16 10 6 0 7 -4 4 -10z m625 -9 c-18 -10 -104 -22 -96 -13 4 3 25 9 49 13 60 9
64 9 47 0z m-407 -48 c-7 -2 -19 -2 -25 0 -7 3 -2 5 12 5 14 0 19 -2 13 -5z"/>
<path d="M2557 5098 c6 -11 31 -10 37 1 3 5 -5 8 -18 7 -13 0 -22 -4 -19 -8z"/>
<path d="M4140 4537 c-106 -29 -160 -53 -247 -110 -227 -147 -354 -387 -356
-672 0 -135 12 -206 55 -314 151 -382 563 -585 974 -481 362 92 604 409 604
791 0 357 -214 655 -554 771 -83 29 -103 32 -241 35 -132 3 -160 0 -235 -20z
m294 -298 c162 -30 301 -152 355 -314 92 -278 -46 -575 -308 -655 -256 -80
-528 92 -582 368 -16 87 -7 222 21 297 57 152 179 264 327 299 72 18 114 19
187 5z"/>
<path d="M7733 4540 c-98 -23 -132 -38 -112 -51 9 -6 10 -9 2 -9 -6 0 -14 4
-18 10 -3 5 -12 7 -20 4 -8 -4 -12 -10 -9 -15 3 -5 -3 -9 -13 -9 -27 0 -134
-70 -127 -82 4 -6 2 -8 -3 -5 -6 4 -16 1 -22 -7 -9 -11 -8 -18 4 -30 9 -9 12
-16 6 -16 -5 0 -14 8 -20 18 -9 15 -16 10 -61 -38 -80 -85 -85 -94 -65 -124
10 -14 24 -26 32 -26 13 0 13 -3 3 -15 -18 -22 -25 -19 -39 20 -7 19 -16 33
-21 30 -5 -3 -21 -29 -35 -58 -19 -37 -25 -61 -21 -87 2 -19 2 -27 0 -17 -15
49 -42 -18 -69 -167 -17 -90 -13 -240 6 -251 4 -3 6 -12 2 -20 -7 -20 46 -187
58 -180 5 4 6 -1 3 -9 -3 -8 3 -19 15 -25 12 -7 18 -17 15 -26 -3 -7 9 -36 27
-62 43 -62 57 -76 70 -68 6 4 9 1 7 -7 -2 -7 7 -26 18 -41 18 -22 26 -26 45
-19 l23 9 -22 12 c-12 7 -26 10 -31 7 -5 -3 -14 1 -21 9 -9 10 -9 15 -1 15 6
0 11 -4 11 -9 0 -4 19 -7 43 -6 23 1 36 0 30 -2 -7 -3 -13 -9 -13 -15 0 -6 8
-7 17 -3 15 5 14 3 -2 -13 -11 -10 -27 -17 -35 -14 -13 5 -13 3 -1 -12 19 -23
170 -122 201 -131 14 -4 31 -13 39 -19 11 -8 15 -8 18 2 3 6 12 12 21 11 11 0
12 -2 5 -6 -7 -2 -13 -9 -13 -15 0 -6 7 -8 15 -4 8 3 15 1 15 -3 0 -14 118
-31 209 -31 90 0 215 26 204 43 -3 5 -2 7 4 4 11 -7 101 33 124 55 8 7 26 21
42 31 15 10 27 23 27 31 0 12 12 13 55 7 6 -1 5 -4 -1 -9 -7 -4 -13 -57 -17
-132 -3 -78 -11 -142 -21 -169 -19 -51 -19 -54 -7 -47 5 4 7 -3 4 -14 -3 -11
-10 -20 -15 -20 -5 0 -6 6 -2 13 5 9 3 9 -7 -1 -12 -11 -12 -14 0 -21 9 -6 10
-11 2 -15 -6 -4 -11 -4 -11 0 0 3 -7 1 -15 -6 -9 -8 -13 -21 -10 -34 4 -14 3
-17 -3 -8 -6 10 -12 8 -26 -7 -10 -11 -15 -24 -12 -29 3 -5 -2 -9 -12 -8 -9 0
-17 -6 -17 -14 0 -9 7 -14 20 -12 11 2 17 1 13 -3 -4 -4 -18 -9 -30 -10 -37
-4 -38 -4 -32 -20 4 -9 0 -15 -9 -15 -9 0 -24 -2 -34 -5 -10 -3 -4 1 12 9 17
8 26 15 20 16 -5 0 -1 7 9 15 11 8 17 15 13 15 -10 0 -96 -48 -92 -51 2 -2 -6
-5 -18 -6 -12 -1 -35 -4 -52 -7 -84 -16 -222 -3 -279 26 -13 7 -16 7 -12 -1 4
-6 21 -15 39 -20 20 -6 24 -9 12 -10 -11 0 -36 8 -55 19 -19 11 -29 19 -22 20
7 0 10 5 6 11 -3 6 -17 8 -30 5 -17 -5 -26 -2 -31 9 -3 9 -11 14 -18 12 -6 -3
-12 1 -12 8 0 10 5 11 19 4 10 -5 18 -14 18 -19 0 -6 5 -10 12 -10 7 0 -6 18
-27 40 -21 22 -46 39 -53 37 -8 -1 -17 5 -19 13 -4 13 -3 13 6 0 6 -8 11 -10
11 -4 0 6 -8 18 -18 28 -18 15 -19 15 -17 -13 1 -17 -2 -28 -6 -25 -4 2 -6 18
-4 35 4 33 -26 94 -40 81 -4 -4 -5 1 -2 11 10 26 -10 22 -120 -25 -115 -49
-111 -47 -93 -58 13 -8 12 -10 -2 -10 -9 0 -18 6 -21 13 -3 9 -7 9 -18 1 -8
-7 -22 -13 -31 -15 -16 -4 -16 -6 -1 -36 8 -18 20 -30 26 -26 6 3 7 1 3 -5 -8
-14 18 -55 28 -45 4 4 5 1 2 -7 -8 -19 79 -129 111 -141 13 -5 22 -13 19 -17
-6 -10 67 -66 136 -106 43 -25 51 -27 83 -16 20 7 39 10 42 6 3 -3 -7 -8 -21
-12 -27 -6 -27 -7 -6 -21 45 -32 339 -70 362 -47 3 3 32 7 64 9 33 2 73 9 89
16 17 7 37 11 45 10 12 -1 11 1 -2 12 -24 19 -23 22 13 23 19 1 26 -2 18 -7
-8 -4 -11 -10 -8 -13 8 -9 142 61 183 96 55 46 127 124 150 161 l20 32 -21
-18 c-19 -17 -21 -17 -27 -1 -4 10 -2 22 4 28 8 8 9 5 4 -9 l-7 -20 22 20 c13
11 26 18 30 16 6 -3 58 115 66 153 2 12 7 32 11 46 7 22 6 24 -9 11 -9 -7 -17
-25 -17 -40 0 -14 -5 -33 -10 -41 -7 -11 -8 -5 -4 20 10 61 24 89 42 83 13 -5
14 0 9 33 -5 28 -4 35 4 24 7 -11 9 -1 7 37 -2 28 0 49 5 46 4 -2 7 352 7 786
l0 791 -162 0 -163 0 -3 -50 c-2 -27 2 -59 8 -71 11 -19 10 -20 -12 -14 -12 4
-30 14 -39 21 -9 8 -19 11 -24 7 -4 -5 -5 -3 -1 4 3 7 -4 20 -19 30 -14 10
-35 26 -47 36 -13 10 -30 16 -40 14 -10 -3 -16 -1 -12 4 3 5 -2 9 -10 9 -9 0
-16 5 -16 11 0 6 -7 9 -15 5 -8 -3 -15 -1 -15 5 0 6 -5 7 -10 4 -15 -9 -2 -25
21 -25 10 0 19 -4 19 -10 0 -5 -14 -7 -31 -5 -29 4 -54 15 -32 15 5 0 10 7 10
15 0 41 -211 57 -344 25z m245 -15 c-7 -7 -67 8 -63 16 3 4 19 3 36 -3 16 -6
29 -12 27 -13z m55 -2 c-7 -2 -21 -2 -30 0 -10 3 -4 5 12 5 17 0 24 -2 18 -5z
m-363 -18 c-7 -8 -8 -15 -3 -15 5 0 10 -7 10 -15 0 -8 -4 -15 -9 -15 -4 0 -8
7 -8 15 0 8 -6 15 -12 15 -8 0 -5 7 6 15 25 19 32 19 16 0z m123 -2 c-7 -2
-19 -2 -25 0 -7 3 -2 5 12 5 14 0 19 -2 13 -5z m250 0 c-7 -2 -19 -2 -25 0 -7
3 -2 5 12 5 14 0 19 -2 13 -5z m-264 -19 c1 -1 13 1 25 6 13 4 38 5 57 0 31
-7 32 -8 7 -9 -16 -1 -28 -5 -28 -11 0 -5 -18 -10 -40 -10 -22 0 -40 5 -40 10
0 6 -13 10 -29 10 -17 0 -33 5 -36 10 -4 7 8 8 37 4 24 -4 45 -8 47 -10z m601
12 c0 -3 -4 -8 -10 -11 -5 -3 -10 -1 -10 4 0 6 5 11 10 11 6 0 10 -2 10 -4z
m266 -8 c-15 -10 -226 -10 -226 0 0 4 54 7 119 7 65 0 114 -3 107 -7z m-599
-4 c-3 -3 -12 -4 -19 -1 -8 3 -5 6 6 6 11 1 17 -2 13 -5z m355 -19 c-2 -14 -8
-25 -12 -25 -4 0 -5 11 -2 25 2 14 8 25 12 25 4 0 5 -11 2 -25z m-832 -15
c-20 -13 -33 -13 -25 0 3 6 14 10 23 10 15 0 15 -2 2 -10z m-34 -27 c-2 -3
-17 -6 -32 -8 -25 -2 -26 -1 -10 10 16 12 54 10 42 -2z m47 0 c-7 -2 -19 -2
-25 0 -7 3 -2 5 12 5 14 0 19 -2 13 -5z m622 -3 c3 -5 1 -10 -4 -10 -6 0 -11
5 -11 10 0 6 2 10 4 10 3 0 8 -4 11 -10z m45 -34 c0 -7 9 -22 20 -34 12 -12
16 -22 10 -22 -17 0 -40 26 -40 45 0 9 -4 14 -9 10 -5 -3 -12 -2 -15 3 -2 4 4
9 15 9 10 1 19 -4 19 -11z m147 -6 c3 -10 2 -11 -4 -4 -4 6 -15 14 -23 17 -11
5 -9 6 4 4 11 -1 21 -9 23 -17z m-50 -36 c-3 -3 -13 -1 -24 5 -10 5 -26 12
-35 15 -10 3 -18 10 -18 15 0 5 18 0 41 -11 22 -10 39 -22 36 -24z m-386 -42
c-18 -2 -37 0 -42 5 -5 5 11 6 34 3 41 -4 41 -5 8 -8z m-605 -14 c4 -6 3 -8
-2 -5 -6 3 -16 -3 -23 -15 -11 -18 -10 -19 11 -13 13 4 20 4 16 0 -4 -4 -21
-9 -37 -11 l-31 -4 27 30 c30 34 29 34 39 18z m584 -8 c-8 -5 -28 -9 -45 -9
l-30 1 30 8 c17 4 37 8 45 9 13 1 13 0 0 -9z m48 -17 c-10 -2 -26 -2 -35 0
-10 3 -2 5 17 5 19 0 27 -2 18 -5z m61 -32 c30 -11 61 -16 69 -13 10 3 13 1 8
-6 -4 -6 5 -17 21 -26 16 -8 50 -37 76 -65 26 -28 49 -50 51 -48 1 1 10 -4 20
-12 15 -12 16 -11 11 22 -3 19 -2 37 2 40 4 3 8 -14 8 -36 0 -34 -3 -42 -18
-41 -14 2 -15 -1 -6 -12 6 -8 16 -11 22 -7 6 3 7 1 3 -6 -4 -7 0 -28 9 -47 40
-85 51 -215 30 -368 -8 -59 -76 -178 -135 -235 -72 -70 -97 -90 -103 -85 -2 2
-26 -6 -53 -18 -70 -31 -218 -31 -287 0 -26 11 -53 20 -60 18 -7 -1 -8 -1 -4
2 4 2 -11 16 -35 32 -24 15 -58 44 -77 63 -19 20 -39 33 -44 30 -6 -3 -7 -1
-3 5 6 10 -25 65 -45 82 -3 3 -9 16 -12 30 -3 14 -13 52 -21 85 -34 130 -15
277 50 394 17 30 21 48 14 55 -5 5 -10 17 -9 25 0 9 5 5 10 -9 l10 -25 19 23
c10 12 20 26 22 30 6 13 83 69 130 94 26 14 44 28 41 32 -4 4 -1 5 7 2 8 -3
29 -2 45 3 53 16 176 12 234 -8z m-322 3 c-3 -3 -12 -4 -19 -1 -8 3 -5 6 6 6
11 1 17 -2 13 -5z m488 -17 c6 -7 6 -9 1 -4 -19 14 -56 8 -56 -10 0 -9 -3 -13
-7 -9 -5 4 -8 13 -8 19 0 7 -12 12 -27 12 -14 0 -29 3 -33 6 -3 4 22 5 57 2
35 -2 68 -9 73 -16z m-885 -2 c0 -8 -7 -15 -15 -15 -8 0 -15 7 -15 15 0 8 7
15 15 15 8 0 15 -7 15 -15z m314 -4 c-22 -21 -27 -21 -18 3 3 9 13 16 22 16
13 0 12 -3 -4 -19z m26 -21 c-24 -15 -37 -11 -16 5 11 8 22 12 25 9 3 -3 -1
-9 -9 -14z m537 -20 c1 -14 0 -18 -3 -10 -4 8 -14 21 -23 28 -14 13 -14 13 4
10 13 -2 21 -12 22 -28z m-576 -5 c11 6 11 5 2 -5 -12 -14 -33 -6 -33 13 0 8
3 7 9 -2 5 -8 14 -10 22 -6z m-41 -15 c0 -5 -5 -10 -11 -10 -5 0 -7 5 -4 10 3
6 8 10 11 10 2 0 4 -4 4 -10z m665 -7 c-3 -8 -5 -20 -5 -26 0 -6 -7 -4 -16 5
-18 18 -13 35 11 35 10 0 14 -6 10 -14z m-985 -10 c0 -7 -7 -10 -15 -7 -8 4
-15 1 -15 -5 0 -6 -4 -11 -9 -11 -5 0 -7 9 -4 19 5 22 43 25 43 4z m1016 1
c-3 -9 -6 -20 -6 -25 0 -6 -4 -8 -9 -5 -12 8 -2 46 11 46 6 0 7 -7 4 -16z
m-746 -10 c0 -8 -5 -12 -10 -9 -6 4 -8 11 -5 16 9 14 15 11 15 -7z m32 -24
c-6 -16 -11 -20 -16 -11 -4 6 -2 19 5 27 16 20 21 12 11 -16z m-373 -140 c0
-10 -3 -8 -9 5 -12 27 -12 43 0 25 5 -8 9 -22 9 -30z m1151 30 c0 -5 -2 -10
-4 -10 -3 0 -8 5 -11 10 -3 6 -1 10 4 10 6 0 11 -4 11 -10z m27 -12 c-3 -8 -6
-5 -6 6 -1 11 2 17 5 13 3 -3 4 -12 1 -19z m270 -40 c-2 -13 -4 -3 -4 22 0 25
2 35 4 23 2 -13 2 -33 0 -45z m-1200 20 c-3 -8 -6 -5 -6 6 -1 11 2 17 5 13 3
-3 4 -12 1 -19z m33 2 c-8 -5 -17 -7 -19 -4 -3 3 1 9 9 14 8 5 17 7 19 4 3 -3
-1 -9 -9 -14z m917 -27 c-3 -10 -5 -2 -5 17 0 19 2 27 5 18 2 -10 2 -26 0 -35z
m-1220 15 c-3 -8 -6 -5 -6 6 -1 11 2 17 5 13 3 -3 4 -12 1 -19z m294 -23 c5 4
6 -1 2 -10 -5 -13 -7 -14 -14 -3 -5 7 -8 18 -8 23 0 6 3 4 6 -3 2 -6 9 -10 14
-7z m-289 -22 c-3 -16 -7 -22 -10 -15 -4 13 4 42 11 42 2 0 2 -12 -1 -27z m14
-39 c-4 -14 -9 -24 -12 -21 -3 2 -2 17 2 31 3 15 9 25 11 22 3 -3 2 -17 -1
-32z m1181 14 c-3 -8 -6 -5 -6 6 -1 11 2 17 5 13 3 -3 4 -12 1 -19z m-922 -19
c-5 -16 -9 -18 -15 -9 -4 7 -3 19 3 25 16 17 20 11 12 -16z m944 -37 c0 -14
-2 -13 -9 3 -8 19 -9 19 -9 1 -1 -11 -4 -17 -7 -13 -4 3 -4 13 0 22 7 20 26
10 25 -13z m248 -224 c-1 -46 -3 -9 -3 82 0 91 2 128 3 83 2 -46 2 -120 0
-165z m-1490 125 c-2 -21 -4 -4 -4 37 0 41 2 58 4 38 2 -21 2 -55 0 -75z m290
50 c-3 -10 -5 -2 -5 17 0 19 2 27 5 18 2 -10 2 -26 0 -35z m940 -5 c-3 -8 -6
-5 -6 6 -1 11 2 17 5 13 3 -3 4 -12 1 -19z m5 -67 c2 -17 1 -28 -3 -25 -4 2
-9 1 -12 -3 -2 -5 -2 -2 0 5 1 8 3 22 3 33 0 29 7 23 12 -10z m-945 -13 c-3
-7 -5 -2 -5 12 0 14 2 19 5 13 2 -7 2 -19 0 -25z m-267 -12 c0 -3 -5 -17 -10
-32 -8 -19 -14 -24 -21 -17 -7 7 -7 17 3 32 11 19 28 28 28 17z m1205 -98
l-14 -33 2 32 c1 17 6 29 10 26 4 -2 5 8 2 24 -5 25 -4 25 4 6 7 -16 6 -32 -4
-55z m-915 -4 c0 -8 -5 -12 -10 -9 -6 4 -8 11 -5 16 9 14 15 11 15 -7z m-281
-49 c4 -5 4 -21 0 -35 l-7 -25 -1 28 c-1 15 -6 26 -12 25 -6 -2 -14 4 -16 12
-4 13 -3 13 7 0 9 -12 11 -11 9 10 -2 37 3 49 8 20 3 -14 8 -29 12 -35z m258
13 c-3 -8 -6 -5 -6 6 -1 11 2 17 5 13 3 -3 4 -12 1 -19z m58 -55 c23 -8 18
-22 -6 -16 -24 7 -41 45 -32 70 5 14 9 10 15 -15 5 -18 15 -35 23 -39z m2 -39
c-3 -3 -12 -4 -19 -1 -8 3 -5 6 6 6 11 1 17 -2 13 -5z m29 -38 c-1 -24 -4 -42
-7 -40 -4 2 -5 18 -4 36 4 44 4 48 8 48 2 0 3 -20 3 -44z m767 15 c-5 -3 -19
-19 -31 -35 -32 -41 -27 -22 6 24 15 21 29 34 31 28 2 -6 -1 -13 -6 -17z m10
-26 c-3 -9 -8 -14 -10 -11 -3 3 -2 9 2 15 9 16 15 13 8 -4z m-738 -15 c5 8 12
4 23 -11 17 -25 24 -61 10 -53 -5 4 -7 12 -4 20 6 14 -10 28 -33 29 -8 0 -16
7 -18 15 -4 12 -3 12 5 1 7 -10 11 -10 17 -1z m-302 -37 c-3 -7 -6 -13 -8 -13
-2 0 -5 6 -8 13 -3 8 1 14 8 14 7 0 11 -6 8 -14z m-2 -28 c5 3 6 -1 3 -9 -5
-13 -9 -12 -25 8 -10 13 -19 28 -19 32 0 5 7 -2 16 -14 8 -12 20 -20 25 -17z
m389 5 c13 -9 13 -11 0 -20 -12 -8 -13 -10 -1 -10 8 0 12 -2 9 -5 -3 -3 -13
-2 -22 1 -14 5 -15 9 -4 15 11 7 10 11 -2 19 -8 5 -10 10 -5 10 6 0 17 -5 25
-10z m518 -19 c-7 -11 -16 -17 -22 -14 -5 3 -1 12 9 20 25 18 27 17 13 -6z
m32 -11 c-24 -15 -36 -11 -14 4 10 8 21 12 24 10 2 -3 -2 -9 -10 -14z m-40
-30 c-8 -5 -19 -10 -25 -10 -5 0 -3 5 5 10 8 5 20 10 25 10 6 0 3 -5 -5 -10z
m-377 -17 c-7 -2 -19 -2 -25 0 -7 3 -2 5 12 5 14 0 19 -2 13 -5z m284 1 c-3
-3 -12 -4 -19 -1 -8 3 -5 6 6 6 11 1 17 -2 13 -5z m-224 -11 c-7 -2 -19 -2
-25 0 -7 3 -2 5 12 5 14 0 19 -2 13 -5z m155 0 c-10 -2 -26 -2 -35 0 -10 3 -2
5 17 5 19 0 27 -2 18 -5z m-218 -13 c-12 -8 -12 -10 -1 -10 8 0 12 -2 9 -5 -3
-3 -13 -2 -22 1 -14 5 -15 9 -4 15 7 5 18 9 23 9 6 0 3 -5 -5 -10z m138 3
c-10 -2 -28 -2 -40 0 -13 2 -5 4 17 4 22 1 32 -1 23 -4z m129 1 c-3 -3 -12 -4
-19 -1 -8 3 -5 6 6 6 11 1 17 -2 13 -5z m-44 -11 c-7 -2 -21 -2 -30 0 -10 3
-4 5 12 5 17 0 24 -2 18 -5z m-580 -80 c-5 -13 -2 -15 11 -10 9 4 15 3 11 -2
-3 -5 10 -8 28 -7 25 2 33 -1 33 -14 0 -11 -6 -16 -15 -12 -10 4 -12 1 -6 -8
5 -8 4 -11 -3 -6 -6 4 -9 13 -5 22 4 12 0 14 -19 9 -26 -7 -55 16 -43 35 10
16 15 12 8 -7z m851 -22 c3 -4 -4 -17 -17 -27 l-22 -19 19 23 c20 23 9 31 -12
10 -8 -8 -12 -9 -12 -1 0 18 35 29 44 14z m111 -60 c-3 -6 -11 -11 -16 -11 -5
0 -4 6 3 14 14 16 24 13 13 -3z m-777 -32 c-19 -12 -25 -11 -25 5 0 8 8 11 20
8 14 -4 16 -7 5 -13z m539 5 c0 -6 -10 -9 -21 -7 -18 4 -19 3 -6 -7 12 -9 10
-10 -10 -5 -33 9 -50 25 -19 19 17 -4 20 -3 11 4 -10 7 -5 9 15 8 17 -1 30 -6
30 -12z m43 6 c-8 -5 -19 -10 -25 -10 -5 0 -3 5 5 10 8 5 20 10 25 10 6 0 3
-5 -5 -10z m457 -52 c-2 -13 -4 -3 -4 22 0 25 2 35 4 23 2 -13 2 -33 0 -45z
m-1007 32 c-8 -5 -19 -10 -25 -10 -5 0 -3 5 5 10 8 5 20 10 25 10 6 0 3 -5 -5
-10z m87 -27 c-3 -3 -11 -2 -17 2 -8 5 -7 11 2 22 12 15 13 14 16 -1 2 -10 1
-20 -1 -23z m293 8 c0 -12 -26 -32 -33 -25 -9 10 4 34 19 34 8 0 14 -4 14 -9z
m-193 -37 c-3 -3 -12 -4 -19 -1 -8 3 -5 6 6 6 11 1 17 -2 13 -5z m130 0 c-3
-3 -12 -4 -19 -1 -8 3 -5 6 6 6 11 1 17 -2 13 -5z m409 -39 c-6 -24 -26 -35
-26 -15 0 6 5 10 10 10 6 0 10 12 11 28 0 15 3 21 6 14 3 -7 2 -24 -1 -37z m1
-72 c-3 -10 -5 -4 -5 12 0 17 2 24 5 18 2 -7 2 -21 0 -30z m233 -47 c0 -3 -4
-8 -10 -11 -5 -3 -10 -1 -10 4 0 6 5 11 10 11 6 0 10 -2 10 -4z m-1147 -47
c13 -3 7 -7 -17 -15 -20 -6 -36 -7 -36 -3 0 5 8 10 18 10 15 1 14 2 -2 6 -15
4 -16 7 -5 13 7 5 16 5 19 1 3 -5 13 -10 23 -12z m1114 -41 c-2 -13 -4 -3 -4
22 0 25 2 35 4 23 2 -13 2 -33 0 -45z m-1074 29 c3 -8 -1 -14 -8 -14 -7 0 -11
6 -8 14 3 7 6 13 8 13 2 0 5 -6 8 -13z m-138 -7 c-3 -5 -14 -10 -23 -9 -14 0
-13 2 3 9 27 11 27 11 20 0z m941 -63 c0 -14 -8 -24 -19 -24 -15 -2 -16 0 -2
13 8 9 15 20 15 25 0 5 2 9 4 9 2 0 3 -10 2 -23z m-1052 3 c33 -12 24 -36 -14
-36 -16 0 -27 3 -24 8 3 4 0 8 -5 8 -6 0 -11 5 -11 12 0 9 3 9 12 0 7 -7 23
-12 38 -12 25 1 25 1 -5 15 -35 16 -28 20 9 5z m25 -134 c-9 -8 -11 -7 -7 5 3
8 0 26 -8 40 -7 13 -13 18 -14 10 0 -8 -2 -12 -5 -9 -3 3 -2 13 1 23 6 15 11
11 26 -20 16 -29 17 -40 7 -49z m1294 69 c-3 -9 -8 -14 -10 -11 -3 3 -2 9 2
15 9 16 15 13 8 -4z m-1247 -72 c-3 -8 -6 -17 -6 -19 0 -2 -8 -4 -17 -4 -15 0
-15 2 -4 9 8 5 11 16 8 24 -4 11 -2 14 9 10 8 -3 13 -12 10 -20z m30 -33 c1
-17 -3 -30 -9 -30 -5 0 -3 -8 4 -17 13 -16 12 -17 -4 -4 -13 10 -14 17 -7 26
7 9 8 15 1 19 -6 4 -8 13 -4 21 9 24 18 17 19 -15z m1144 -10 c0 -13 -32 -50
-44 -50 -2 0 -7 7 -10 16 -3 8 -2 13 3 9 5 -3 17 -2 26 1 13 5 15 14 11 38 -4
22 -3 27 4 16 5 -8 10 -22 10 -30z m-766 14 c20 -7 11 -24 -12 -24 -15 0 -15
2 -2 11 11 8 8 9 -15 5 -22 -5 -26 -4 -15 4 18 11 23 12 44 4z m90 0 c20 -8
21 -44 1 -44 -18 0 -20 16 -2 23 7 3 2 9 -13 15 -26 11 -13 16 14 6z m245 2
c-7 -7 -79 -25 -79 -20 0 7 43 23 64 23 11 1 17 -1 15 -3z m84 -3 c-7 -2 -19
-2 -25 0 -7 3 -2 5 12 5 14 0 19 -2 13 -5z m-353 -23 c0 -5 -9 -6 -20 -3 -11
3 -20 9 -20 13 0 5 9 6 20 3 11 -3 20 -9 20 -13z m625 -39 c-6 -5 -25 10 -25
20 0 5 6 4 14 -3 8 -7 12 -15 11 -17z m-1025 9 c0 -5 -7 -10 -16 -10 -8 0 -12
5 -9 10 3 6 10 10 16 10 5 0 9 -4 9 -10z m40 -30 c0 -5 -7 -10 -15 -10 -8 0
-15 5 -15 10 0 6 7 10 15 10 8 0 15 -4 15 -10z m990 0 c5 8 10 10 10 5 0 -6
-9 -18 -20 -28 -11 -9 -20 -13 -20 -9 0 4 -5 0 -10 -8 -7 -11 -12 -12 -20 -4
-9 9 -5 13 14 18 18 4 24 11 20 24 -5 14 -4 15 5 2 10 -13 12 -13 21 0z m-993
-41 c2 -16 0 -17 -18 -1 -10 9 -19 17 -19 17 0 0 8 1 18 1 10 0 19 -8 19 -17z
m929 -26 c-7 -7 -26 7 -26 19 0 6 6 6 15 -2 9 -7 13 -15 11 -17z m-33 -7 c3
-8 -2 -20 -11 -27 -14 -11 -15 -11 -5 0 6 7 9 20 6 27 -3 8 -3 14 0 14 3 0 7
-6 10 -14z m-779 -42 c4 -10 1 -14 -6 -12 -15 5 -23 28 -10 28 5 0 13 -7 16
-16z m85 12 c-2 -2 -15 -9 -29 -15 -24 -11 -24 -11 -6 3 16 13 49 24 35 12z
m611 -6 c0 -5 8 -10 18 -10 14 0 15 2 2 10 -8 5 -10 10 -5 10 6 0 16 -4 23 -9
10 -6 6 -11 -17 -19 -17 -6 -31 -10 -32 -9 -6 16 -5 37 2 37 5 0 9 -4 9 -10z
m-53 -16 c-3 -3 -12 -4 -19 -1 -8 3 -5 6 6 6 11 1 17 -2 13 -5z m-321 -68 c37
-5 44 -4 29 4 -18 9 -17 10 5 5 14 -2 28 -5 33 -5 4 0 7 -5 7 -11 0 -9 -36 -9
-153 0 -5 1 -5 6 -2 12 4 6 13 8 20 5 7 -2 34 -7 61 -10z m231 8 c-3 -3 -12
-4 -19 -1 -8 3 -5 6 6 6 11 1 17 -2 13 -5z m-50 -10 c-3 -3 -12 -4 -19 -1 -8
3 -5 6 6 6 11 1 17 -2 13 -5z"/>
<path d="M7815 4480 c-3 -6 1 -7 9 -4 18 7 21 14 7 14 -6 0 -13 -4 -16 -10z"/>
<path d="M9992 4534 c-99 -29 -146 -52 -227 -109 -151 -107 -261 -279 -306
-480 -22 -97 -17 -323 10 -420 44 -164 146 -323 269 -421 73 -57 217 -128 307
-151 107 -26 306 -24 409 5 85 24 199 78 256 120 90 66 214 198 203 215 -3 5
-63 47 -135 94 l-129 84 -59 -63 c-99 -108 -211 -158 -350 -158 -160 1 -276
63 -366 195 -18 27 -30 52 -26 56 4 4 178 77 387 164 209 86 451 186 538 222
86 36 157 69 157 74 0 5 -12 39 -27 76 -106 265 -292 445 -519 503 -114 30
-282 27 -392 -6z m380 -313 c26 -12 61 -33 77 -47 29 -24 77 -92 70 -99 -2 -1
-53 -23 -114 -48 -137 -55 -504 -208 -567 -236 -28 -12 -50 -16 -53 -10 -10
16 6 120 28 179 47 129 155 231 292 277 61 20 208 11 267 -16z"/>
</g>
</svg>
