<?xml version="1.0" standalone="no"?>
<!DOCTYPE svg PUBLIC "-//W3C//DTD SVG 20010904//EN"
 "http://www.w3.org/TR/2001/REC-SVG-20010904/DTD/svg10.dtd">
<svg version="1.0" xmlns="http://www.w3.org/2000/svg"
 width="3840.000000pt" height="2160.000000pt" viewBox="0 0 3840.000000 2160.000000"
 preserveAspectRatio="xMidYMid meet">

<g transform="translate(0.000000,2160.000000) scale(0.100000,-0.100000)"
fill="#000000" stroke="none">
<path d="M16869 21326 c-2 -2 -976 -7 -2164 -11 -1188 -3 -2230 -8 -2315 -10
-85 -2 -553 -7 -1040 -10 -487 -4 -910 -9 -940 -10 -30 -2 -131 -4 -225 -5
-234 -3 -304 -12 -430 -54 -385 -129 -673 -413 -911 -900 -45 -91 -69 -154
-79 -206 -31 -170 -49 -625 -56 -1500 -11 -1386 2 -12493 16 -12790 2 -36 6
-645 10 -1355 4 -710 8 -1306 10 -1325 2 -19 5 -222 6 -450 2 -228 6 -550 10
-715 l7 -300 35 -135 c78 -301 198 -520 386 -709 158 -158 350 -278 586 -366
242 -90 313 -100 800 -110 165 -3 341 -7 390 -10 50 -2 392 -7 760 -11 369 -3
731 -7 805 -9 1121 -26 12714 -26 13700 0 85 2 409 7 720 10 311 3 615 8 675
10 61 3 209 7 330 10 277 7 360 17 527 59 323 81 565 219 741 421 85 99 254
339 295 420 130 261 171 783 190 2455 16 1496 5 14965 -13 15205 -2 28 -6 231
-10 452 -7 492 -20 759 -41 833 -29 100 -112 244 -239 415 -212 286 -376 430
-605 533 -153 70 -430 109 -885 127 -88 4 -176 8 -195 10 -19 2 -231 6 -470
10 -239 4 -448 9 -465 12 -30 6 -9910 15 -9916 9z m5756 -4154 c624 -123 1217
-678 1757 -1645 927 -1661 1611 -4426 1887 -7627 47 -543 90 -1228 106 -1685
3 -88 7 -198 10 -245 3 -47 7 -229 10 -405 3 -176 8 -425 11 -553 3 -183 2
-233 -8 -237 -20 -7 -1756 -13 -1765 -6 -4 3 -9 80 -9 171 -3 337 -15 1197
-19 1260 -2 36 -6 166 -10 290 -8 325 -32 880 -55 1300 -254 4604 -1028 7977
-1939 8453 -86 46 -133 57 -228 58 -285 1 -565 -261 -828 -776 -652 -1277
-1146 -4056 -1299 -7300 -9 -176 -18 -365 -20 -420 -3 -55 -8 -210 -11 -345
-4 -135 -8 -258 -11 -275 -2 -16 -7 -370 -10 -785 -4 -415 -7 -756 -8 -757 -3
-4 -1776 -8 -1777 -4 0 7 -5 298 -14 846 -3 209 -8 436 -10 505 -3 69 -10 256
-15 415 -109 3084 -535 5942 -1120 7510 -402 1077 -863 1541 -1307 1317 -459
-232 -890 -1210 -1237 -2804 -346 -1589 -596 -3822 -686 -6123 -5 -143 -12
-314 -15 -380 -3 -66 -7 -237 -10 -380 -3 -143 -8 -300 -10 -350 -2 -49 -7
-394 -10 -765 -4 -371 -8 -681 -10 -687 -4 -10 -191 -13 -891 -13 l-887 0 7
563 c4 309 9 594 11 632 2 39 6 160 10 270 37 1251 169 2710 355 3931 384
2517 1037 4575 1837 5794 187 283 350 487 549 682 312 307 604 478 937 550
144 31 397 31 543 0 370 -79 702 -277 1044 -621 571 -574 1078 -1489 1515
-2736 58 -166 188 -573 257 -809 l24 -78 68 233 c693 2370 1694 3829 2764
4028 59 11 125 22 147 24 89 8 276 -3 370 -21z"/>
</g>
</svg>
